<svg width="30" height="20" viewBox="0 0 30 20" fill="none" xmlns="http://www.w3.org/2000/svg">
	<path fill-rule="evenodd" clip-rule="evenodd" d="M 4.2095 2.9224 H 3.7727 C 3.6337 2.9224 3.5145 2.9473 3.4351 3.022 C 3.3557 3.0717 3.2961 3.1713 3.2564 3.2459 C 3.2167 3.3454 3.1968 3.4449 3.177 3.5444 L 3.177 3.5444 C 3.1571 3.6688 3.1571 3.7683 3.1571 3.8429 V 6.0821 C 3.1571 6.3557 3.1174 6.5796 3.0181 6.7537 C 2.9189 6.9279 2.7997 7.0772 2.6409 7.1767 C 2.5019 7.2762 2.3232 7.3509 2.1643 7.4006 C 1.9856 7.4504 1.8268 7.4752 1.6878 7.4752 V 7.5001 C 1.8111 7.5001 1.9501 7.5197 2.1048 7.5415 L 2.1643 7.5499 C 2.343 7.5747 2.5019 7.6494 2.6409 7.7489 C 2.7799 7.8484 2.9189 7.9977 3.0181 8.1967 C 3.1174 8.3958 3.1571 8.6694 3.1571 8.9928 V 11.1075 C 3.1571 11.2071 3.1571 11.3066 3.177 11.4061 C 3.1968 11.5304 3.2167 11.63 3.2763 11.7046 C 3.316 11.8041 3.3954 11.8788 3.4947 11.9285 C 3.594 11.9783 3.7131 12.0281 3.8918 12.0281 H 4.2294 V 14.491 H 2.8196 C 2.621 14.491 2.4225 14.4412 2.2239 14.3666 C 2.0253 14.292 1.8268 14.1676 1.6481 14.0183 C 1.4694 13.8691 1.3304 13.6451 1.2112 13.3964 C 1.0921 13.1476 1.0524 12.849 1.0524 12.5008 V 9.7143 C 1.0524 9.4904 1.0127 9.3163 0.9332 9.1919 C 0.8538 9.0675 0.7545 8.9679 0.6354 8.8933 C 0.5163 8.8187 0.3971 8.7689 0.278 8.7441 C 0.1588 8.7192 0.0596 8.7192 0 8.7192 V 6.3557 H 0 C 0.0794 6.3557 0.1589 6.3557 0.278 6.3308 C 0.3971 6.3059 0.5163 6.2811 0.6155 6.2064 C 0.7347 6.1318 0.8141 6.0572 0.9134 5.9327 C 1.0127 5.8084 1.0325 5.6591 1.0325 5.4601 V 2.5493 C 1.0325 2.201 1.0921 1.9024 1.1914 1.6536 C 1.3105 1.4049 1.4495 1.2058 1.6282 1.0317 C 1.8069 0.8824 1.9856 0.758 2.204 0.6834 C 2.4026 0.6087 2.6012 0.559 2.7997 0.559 H 4.2095 V 2.9224 Z M 21.4155 2.9224 H 21.8523 C 21.9913 2.9224 22.1104 2.9473 22.1899 3.022 C 22.2693 3.0717 22.3289 3.1713 22.3686 3.2459 C 22.4083 3.3454 22.4281 3.4449 22.448 3.5444 C 22.4679 3.6688 22.4679 3.7683 22.4679 3.8429 V 6.0821 C 22.4679 6.3557 22.5076 6.5796 22.6069 6.7537 C 22.7061 6.9279 22.8253 7.0772 22.9841 7.1767 C 23.1231 7.2762 23.3018 7.3509 23.4607 7.4006 C 23.6394 7.4504 23.7983 7.4752 23.9373 7.4752 V 7.5001 C 23.8139 7.5001 23.6749 7.5197 23.5203 7.5415 L 23.4607 7.5499 C 23.282 7.5747 23.1231 7.6494 22.9841 7.7489 C 22.8451 7.8484 22.7061 7.9977 22.6069 8.1967 C 22.5076 8.3958 22.4679 8.6694 22.4679 8.9928 V 11.1075 C 22.4679 11.2071 22.4679 11.3066 22.448 11.4061 C 22.4281 11.5304 22.4083 11.63 22.3488 11.7046 C 22.309 11.8041 22.2296 11.8788 22.1303 11.9285 C 22.031 11.9783 21.9119 12.0281 21.7332 12.0281 H 21.3956 V 14.491 H 22.8054 C 23.004 14.491 23.2026 14.4412 23.4011 14.3666 C 23.5997 14.292 23.7983 14.1676 23.9769 14.0183 C 24.1556 13.8691 24.2946 13.6451 24.4138 13.3964 C 24.5329 13.1476 24.5726 12.849 24.5726 12.5008 V 9.7143 C 24.5726 9.4904 24.6123 9.3163 24.6918 9.1919 C 24.7712 9.0675 24.8704 8.9679 24.9896 8.8933 C 25.1088 8.8187 25.2279 8.7689 25.347 8.7441 C 25.4661 8.7192 25.5654 8.7192 25.625 8.7192 V 6.3557 C 25.5456 6.3557 25.4661 6.3557 25.347 6.3308 C 25.2279 6.3059 25.1088 6.2811 25.0094 6.2064 C 24.8903 6.1318 24.8109 6.0572 24.7116 5.9327 C 24.6123 5.8084 24.5925 5.6591 24.5925 5.4601 V 2.5493 C 24.5925 2.201 24.5329 1.9024 24.4336 1.6536 C 24.3145 1.4049 24.1755 1.2058 23.9968 1.0317 C 23.8181 0.8824 23.6394 0.758 23.4209 0.6834 C 23.2224 0.6087 23.0238 0.559 22.8253 0.559 H 21.4155 V 2.9224 Z M 17.0231 9.3561 L 8.809 1.0566 H 6.8556 V 3.0303 L 15.0697 11.3299 L 13.6063 12.8084 L 14.5796 13.7918 L 16.2638 12.0691 L 18.4865 14.2801 C 18.7557 14.5521 19.1906 14.5521 19.4598 14.2801 L 19.9498 13.7849 C 20.219 13.5129 20.219 13.0735 19.9498 12.8014 L 17.7548 10.5836 L 19.4598 8.8609 L 18.4865 7.8775 L 17.0231 9.3561 Z M 18.7695 3.0233 L 15.4976 6.3292 L 13.5442 4.3624 L 16.8161 1.0566 H 18.7695 V 3.0233 Z M 10.1274 7.8147 L 12.0809 9.8164 L 10.5554 11.3299 L 12.0188 12.8084 L 11.0454 13.7918 L 9.3613 12.0691 L 7.1386 14.287 C 6.8694 14.559 6.4345 14.559 6.1653 14.287 L 5.6752 13.7918 C 5.406 13.5198 5.406 13.0804 5.6752 12.8084 L 7.8702 10.5836 L 6.1653 8.8609 L 7.1386 7.8775 L 8.6019 9.3561 L 10.1274 7.8147 Z" fill="#fff"/>
</svg>